<?xml version="1.0" encoding="UTF-8"?>
<svg id="Layer_1" data-name="Layer 1" xmlns="http://www.w3.org/2000/svg" viewBox="0 0 1611.68 1199.83">
  <defs>
    <style>
      .cls-1 {
        fill: #008f00;
      }
    </style>
  </defs>
  <g id="_4D3tS4.tif" data-name="4D3tS4.tif">
    <g>
      <path class="cls-1" d="M1611.68,1199.12c-.7.24-1.4.48-2.09.71"/>
      <path class="cls-1" d="M579.71,687.49l-7.31-76.22c-1.24-12.97-5.7-22.59-15.11-31.45l-25.8-32.54c-11.6-14.62-21.9-28.86-31.68-44.78-2.51-4.09-6.37-7.02-4.94-13.21-21.69-1.16-42.25-9.03-57.72-24.47l-17.25-17.22c-11.79-11.77-24.89-7.09-40.9,1.96l-70.37,39.8c-6.31,6.02-13.4,10.99-21.92,14.32-10.2,7.35-20.98,14.12-32.59,18.42-3.48,1.29-4.64,2.95-7.44,4.55-30.44,17.42-95.82,44.44-127.63,46.18l-27.61,1.51c-20.27,1.11-58.09-9.12-75.13-24.79C3.68,537.96,0,521.41,0,504.81c-.01-21.71,5.49-40.61,17.51-58.75,14.13-21.33,30.19-41.14,48.74-59.02,39.53-38.1,86.07-67.66,135.52-90.9l40.97-19.26c3.31-1.56,10.69-5.69,10.06-9.97-11.69-38.7-.78-63.15,20.55-94.09,11.04-16.02,22.34-30.83,37.57-43.4,11.32-9.34,21.92-17.99,35.19-24.91,20.01-10.43,40.4-19.13,62.11-26.04l23.19-4.42,7.73,7.02c9.23-7.51,17.84-14.5,27.92-20.49l20.49-12.18c4.71-2.8,8.45-4.17,13.17-6.39l21.56-10.15,40.24-14.78,29.61-8.59c9.96-2.89,19.41-5.09,29.93-4.38,3.2.22,6.36-2.63,9.24-2.77l27.52-1.26c39.37-1.8,91.73,28.75,117.39,58.64,14.19,16.53,21.12,36.07,20.96,57.86-.05,7.09,1.41,13.43-1.59,20.74-.48,1.16-.47,3.96.08,4.93.7,1.22,4.03,2.02,5.98,1.94l40.41-1.78c14.84-.65,28.28,1.99,42.76,4.57,39.56,7.06,83.8,19.85,107.6,52.56,10.61,14.58,20.53,30.01,26.21,47.23l4.07,12.35c8.37,25.4,14.65,53.05-2.43,75.4-15.04,19.67-37.48,37.04-59.28,49.18l-12.42,6.92c-5.26,2.93-10.01,5.9-15.66,8.27l-23.22,9.72-37,12.88c-10.1,3.52-19.66,5.19-30.21,7.2-41.59,7.92-83.19,11.29-125.73,10.52-3.19-.06-5.7-1.76-8.37-.44-2.42,1.19-2.76,4.23-4.61,6.57l-23.9,30.15c-10.93,13.79-19.27,27.9-26.75,43.76l-20.3,30.46c-6.98,10.47-12.67,20.75-20.28,30.81-9.83,12.98-11.95,29.32-12.01,45.59l-.34,80.82c-.07,16.23,2.28,30.9.71,47-1.62,16.66.83,33.47,2.07,50.36,1.33,17.97,1.27,34.73,2.33,52.59l3.22,53.97c.19,3.26,4.09,6.68,1.14,10.55-3.53,4.65-11.71,6.06-15.45,3.29-2.24-1.66-1.37-3.89-1.51-7.02l-7.81-168.82c-.98-21.15-3.17-40.47-5.17-61.34ZM478.91,475.03c54.85,14.5,127.23-17.33,171.74-51.11,6.32-4.8,8.95-6,17.43-3.91,29.9,7.37,60.95,8.75,91.95,6.48l43.39-3.17,18.46-2.65,18.49-2.7,24.08-5.88,27.83-8.18c5.01-1.47,8.87-1.4,13.37-3.94l7.59-4.28,15.43-7.29,12.99-6.32c6.88-3.35,12.28-7.95,18.86-11.16,7.17-3.5,11.96-7.3,18.09-12.08,12.69-9.87,25.54-19.28,33.29-33.71,8.27-15.4,9.8-31.77,6.26-48.26-5.15-23.97-12.9-45.71-26.94-66.09-2.81-4.07-4-7.89-7.83-11.66-4.58-4.51-9.57-10.92-15.37-14.28l-1.82-4.6c-.19-.49-2.32.2-3.32.35-42.32-24.12-101.84-32.67-150.47-28.08l-22.35.47c-2.67.06-5-.91-6.2-2.32-1.46-1.72-1.92-3.97-1.15-6.77,5.77-20.99,7.08-43.73-2.96-63.67-12.07-23.98-37.5-43.45-61.11-56.66s-54.54-19.73-81.49-15.93l-28.8,4.06-21.81,5.05c-8.85,2.05-17.17,3.77-25.77,7.25l-20.21,8.19c-13.65,5.53-26.66,10.15-39.24,17.8-7.95,4.84-16.15,8.4-24.01,13.45l-15.54,10c-10.25,6.59-19.49,14.06-25.96,25.86-4.2-2.72-3.57-6.96-1.5-11.53l-16.06-2.19c-19.5,1.5-63.66,20.98-81.78,33.9-28.68,20.44-50.54,44.87-66.92,76-22.45,42.64-1.38,71.1-2.33,74.72-.54,2.05-2.56,5.09-5.37,6.66l-18.24,10.21-50.56,22.92c-55.79,28.64-95.1,55.98-137.75,101.77-6.39,6.87-10.64,14.06-16.52,21.14-18.65,22.46-30.82,49.26-27.51,79.31,1.17,10.66,6.52,23.38,14.65,30.49,22.68,19.82,76.22,25.8,105.07,17.74l40.84-11.41,38.54-15.72c26.15-10.67,49.38-26.07,74.54-38.91,3.46-1.77,5.07-3.3,8.16-5.24l36.98-23.22c18.87-11.85,37.18-23.39,57.72-32.07,8.88-3.75,19.95-6.11,28.72-2.6,18.77,7.51,27.18,34.41,62.44,43.73ZM610.23,560.95l10.98-19.61c12.29-12.72,20.48-26.73,27.57-42.97,9.35-21.4,31.91-39.37,38.18-61.56l-28.61-4.05c-36.27,26.5-76.85,44.66-120.55,54.11,6.59,18.8,18.28,34.07,30.3,49.48l9.89,23.14c5.26,8.63,9.43,17.29,13.71,26.62,3.08-1.25,2.43-4.76,3.48-6.09l15.05-19.09ZM546.04,532.11c-9.84-13.49-15.65-28.35-26.18-40.65-1.81-2.11-6.54-2.09-9.18-.47l16.66,26.21c11.34,13.96,21.79,27.3,32.56,42.53.68-12.35-7.56-19-13.85-27.63ZM585.42,595.12l-.84,5.86,3.2.46.84-5.86-3.2-.46Z"/>
      <path class="cls-1" d="M657.67,916.91c-3.04,3.39-7.42,3.53-10,2.1-10.01-5.52,5.21-51.34,12.05-70.83l12.02-34.28c-5.46-1.26-9.04-3.38-10.6-6.15-2.76-4.91-3.32-9.83-.62-14.49l7.2-12.43c8.42-10.06,18.77-20.35,31.23-25.42,8.75-3.56,16.75,5.23,19.61,12.81,6.35,16.87-13.03,26.65-13.17,29.34-.09,1.75,2.15,3.27,2.92,4.86,10.58,21.91,18.66,43.98,27.17,67.05l14.7-46.54,6.35-21.2c-18.17-16.65-3.29-46.59,5-45.51,6.01.78,7.77-1.35,11.98-4.66,5.4-4.25,15.19.18,19.11,4.55,5.27,5.89,5.57,15.08.86,21.48l-8.93,12.14,9.64,24.44,24.48,57.66,6.57,15.93c2.01,4.86,3.19,8.09.71,13-10.65,21.07-34.61-18.03-61.16-27.62-5.73-2.07-14.5.06-14.13,6.76l1.71,30.68c.43,7.71-14.88,10.28-18.9,4.77l-21.03-28.81c-7.88-9.79-18.88-15.86-31.83-14.83-11.84,7.58-19.38,20.17-19.1,34.45-.43,3.84-1.04,7.63-3.85,10.76ZM767.46,783.82c7.99-4.43,11.13-10.62,14.9-17-1.19-2.91-4.03-2.92-6.41-2.87-2.91.06-3.14,2.62-4.39,5.32-2.24,4.87-6.77,9.31-4.1,14.55ZM702.6,769.42c-9.74,6.73-20.37,13.61-24.99,25.62,13.11-3.17,31.92-17.74,24.99-25.62ZM803.66,876.53c-11.26-23.59-20.22-45.61-30.51-70.49l-18.69,47.78c6.39-.24,12.48-.73,18.24,2.34,11.36,4.79,18.8,13.72,30.96,20.37ZM720.94,870.69l-8.62-23.25c-4.91-13.24-15.8-37.71-21.69-35.38-.8.32-1.17,2.29-1.63,3.41l-17.83,42.94c10.74-5.52,21.85-5.45,31.58.15,7.22,2.16,11.02,6.9,18.21,12.14Z"/>
      <g>
        <g>
          <path class="cls-1" d="M1413.85,368.18l3.22,23.11c.45,3.25,1.93,5.77.75,8.34s-4.48,4.91-7.87,4.16c-5.37-1.2-8.89-5.62-10.04-10.91l-3.66-16.7c-7.35.42-19.9,4.02-23.06,11.96-4.14,10.41-9.26,21.86-22.51,22.89-2.33,21.29-2.25,42.65-1.1,64.89.21,4.14-2.2,7.63-5.2,8.1-4.19.66-8.13-1.62-8.09-6.56l.55-64.8c-12.91,6.8-25.03,4.9-34.32-3.66-4.23,5.18-8.97,10.78-14.86,12.79-8.59,2.92-15.34-3.62-18.67-11.89-6.71,5.6-13.69,6.42-20.8,7.94-7.24,1.54-12.69.02-18.75-4.37-23.78-17.24,4.4-75.5,23.44-75.38,4.81.03,9.41,2.12,12.33,6.94,1.1,1.81.91,4.08-.18,5.48-3.26,4.15-10.17-2.85-14.93,2.43-18.1,20.09-22.28,48.71-6.56,52.31,10.32,2.37,23-1.62,29.08-10.13l16.94-23.69c3.28-4.59,7.45-8.87,13.45-9.46,4.12-.4,6.07,2.1,7.62,4.29,2.6,3.66-3.44,6.73-3.09,9.09l2.17,14.78c1.55,10.54,9.7,14.76,18.85,12.98,6.03-1.17,9.35-4.13,9.18-10.92-.11-4.56,1.88-10.28-.23-14.77-1.8-3.83-3.1-6.92-1.59-9.83,5.53-10.69,22.95-4.89,33.48,7.58,15.5-12.46,39.21-23.56,44.44-7.01ZM1353.89,392.04c5.04-.64,3.32-8.13.87-7.85-3.16.36-3.28,8.15-.87,7.85ZM1282.53,412.24c10.78-3.65,15.56-13.44,11.34-22.98-6.76,5.93-13.48,13.1-11.34,22.98Z"/>
          <path class="cls-1" d="M1482.63,380.5l23.6-22.98c-15.61-.05-29.45,4.34-43.28,7.82-4.62,20.34,3.97,42.03-2.27,45.96-10.2,6.42-15.78-16.17-14.5-37.76.33-5.56-14.55,1.55-16.35-7.93-1.84-9.7,14.57-7.18,15.39-9.63,5.67-16.97-5.32-29.52,1.73-36.53,2.79-2.77,7.09-3.21,11.05-1.81,3.4,1.2,5.84,5.55,5.7,10.37l-.67,23.38c20.62-3.62,40.81-6.78,61.53-6.38,4.51.09,5.76,2.76,6.23,6.45l7.05,55.82c.58,4.58-2.08,8.7-5.89,9.25-3.58.52-7.89-1.42-8.96-5.61l-8.13-31.97c-6.86,10.55-14.23,18.31-25.71,19.45-4.47.44-7.55-3.39-9.3-6.68s-1.01-7.5,2.79-11.2Z"/>
          <path class="cls-1" d="M1406.02,346.97c-3.21,3.25-7.38,1.83-9.56.98-3.35-1.31-5.11-5.35-2.94-9.13,1.9-3.31,7.28-3.14,9.98-1.2,2.11,1.52,5.26,6.57,2.52,9.35Z"/>
        </g>
        <g>
          <path class="cls-1" d="M1356.74,161.82c7.99-8.88,6.71-22.86,8.23-33.55.88-6.21,2.08-11.4-1.78-17.14-12.67,10.33-28.18,8.75-38.98-2.73l-18.8,11.08-8.13-1c-3.1,14.74-1.99,29.39-.61,44.35.38,4.11,0,6.26-4.49,7.94-1.87.7-4.01,1.65-5.73,1.05-2.17-.75-4.24-2.93-4.31-5.87l-.86-35.8c-.19-7.7-.57-13.79,1.38-21.61l1.33-23.03-28.95,4.55c-1.23.19-3.7.15-4.7.06-1.21-.11-3.37,2.44-2.85,4.12,6.08,5.65,8.08,11.47,6.58,19.34-1.93,10.13-9.18,16.73-19.21,15.4-9.36-1.24-15.86-9.22-14.67-19.85.37-3.32.68-7.19-2.57-9.38l-21.76,22.17c-3.22,3.28-7.11,4.33-11.04,3.22s-6.93-4.42-7.33-8.96l-1.96-22.61c-8.46,10.35-13.7,21.55-17.78,33.59-1.49,4.4-5.48,6.67-10.55,4.24-2.78-1.34-2.2-5.21-3.33-11.38-8.52,10.36-18.49,17.45-31.12,14.56-8.75-2-11.73-10.84-16.23-18.92-8.01,10.76-16.27,17.55-24.43,11.1-2.1-1.66-3.07-5.47-4.26-9.86-10.78,5.65-20.68,14.31-33.36,16.28-10.88,1.69-18.1-10.92-18.19-20.8-.41-43.29,44.22-82.42,56.09-71.5,1.34,1.23,2.23,5.35-.44,6.74-4.8,2.49-8.14,5.42-12.36,8.7-17.57,13.62-29.19,34.17-28.64,56.67.06,2.41,1.16,5.18,2.36,6.1,7.43,5.65,42.28-20.3,56.28-35.76,1.58-1.75,4.02-2.49,5.78-2.5,2.33-.02,3.46,2.82,5.78,4.09l10,5.47c-.67,12.07.83,28.94,6.24,31.72,9.2,4.73,27.15-15.07,33.02-34.8.56-1.89,2.72-3.11,3.85-3.42,4.36-1.2,7.42,4.96,11.54,4.38,3.55-.5,7.23-11.61,13.3-11.81,2.43-.08,7.29,3.55,8.67,5.67,5.24,8.01,3.99,16.86,3.66,27.4,8.44-5.82,15.32-12.42,21.83-19.48,4.73-5.14,9.62-6.85,16.47-7.92l55.57-8.66c4.3-.67,7.54-3.48,11.33-.3,2.69,2.26,4.65,5.89,4.09,10.81l17.44-8.73c9.19-.59,11.63,9.21,14.15,15.6,1.84,4.68,5.15,8.98,8.14,13.06,2.77,3.79,12.18,1.68,15.62-.64,13.26-8.94,3.58-23.48,15.21-25.63,3.41-.63,10.77,2.33,10.5,7.6l-2.04,40.58c-.53,10.56-2.02,21.08-4.69,31.15-4.73,17.89-36,32.62-51.51,18.55-1.71-1.74,1.33-8.04,4.04-8.81,8.85,1.93,21.74,3.4,29.19-4.87ZM1298.61,109.54l17.46-12.71c1.36-.99,1.73-3.58,1.59-4.68-.15-1.24-2.02-2.63-3.32-2.41-2.39.41-16.37,12.41-15.73,19.79ZM1243.33,110.45c.68-4.6,1.4-6.62-.91-8.78-1.8-1.69-3.37-3.4-7.5-2.75.1,4.79-1.87,12.5,1.72,17.06,2.02,2.57,6.21-2.28,6.69-5.53ZM1093.37,101.2c-2.43-2.55-4.59.31-5.47,2.12-1.11,2.29-1.44,4.24-.02,5.97l5.49-8.09Z"/>
          <path class="cls-1" d="M1154.03,277.85l-1.65-45.46-5.08-15.52c-1.45-4.44,2.07-8.22,5.19-10.18,6.65-4.2,10.32,2.46,25.84,4.43,13.77,1.75,22.85,14.11,18.86,27.49,3.04,1.9,9.59-.12,9.46-3.61-.31-8.63.81-18.29,9.78-22.38,10.35-4.72,24.64,3.37,25.76,14.79.76,7.68-6.85,10.09-11.25,15.15,11.22-1.12,22.63-6.73,29.39-15.71,1.47-1.95,1.64-7.32,4.77-7.9l8.29-1.54c3.09-9.36,8.86-18.51,19.23-20.05,3.18-.47,5.62,1.13,6.92,3.25,4.58,7.43-7.82,6.69-12.27,15.71-10.95,22.17-5.01,39-14.85,38.66-8.93-.31-5.85-10.3-11.45-14.44-6.8,7.19-16.27,9.21-24.05,14.01-8.63,5.33-17.2-1.59-24.34-4.77l-43.81,13.13.19,43.69c.01,2.79-6.19,5.75-7.91,3.47-6.9-9.17-6.6-20.42-7.02-32.21ZM1228.75,224.71c-.57-1.74-4.48-2.38-6.4-.79-1.33,1.11-2.72,3.14-2.37,6.61,6.14-.45,10-2.05,8.77-5.83ZM1168.62,249.86l10.15-3.27c5.24-1.69,7.28-11.93,3.65-16.82-2.42-3.25-8.81-3.25-12.39-1.94l-1.4,22.03Z"/>
        </g>
      </g>
    </g>
  </g>
</svg>