<?xml version="1.0" encoding="UTF-8"?>
<svg id="Layer_1" data-name="Layer 1" xmlns="http://www.w3.org/2000/svg" viewBox="0 0 1611.68 1200.73">
  <g id="_4D3tS4.tif" data-name="4D3tS4.tif">
    <g>
      <path d="M1611.68,1200.01c-.7.24-1.4.48-2.09.72"/>
      <path d="M579.71,688l-7.31-76.27c-1.24-12.98-5.7-22.6-15.11-31.47l-25.8-32.56c-11.6-14.63-21.9-28.88-31.68-44.81-2.51-4.09-6.37-7.03-4.94-13.22-21.69-1.16-42.25-9.03-57.72-24.49l-17.25-17.24c-11.79-11.78-24.89-7.09-40.9,1.97l-70.37,39.83c-6.31,6.02-13.4,11-21.92,14.34-10.2,7.36-20.98,14.13-32.59,18.43-3.48,1.29-4.64,2.96-7.44,4.56-30.44,17.44-95.82,44.47-127.63,46.21l-27.61,1.51c-20.27,1.11-58.09-9.13-75.13-24.81C3.68,538.36,0,521.79,0,505.19c-.01-21.72,5.49-40.64,17.51-58.8,14.13-21.35,30.19-41.17,48.74-59.07,39.53-38.13,86.07-67.71,135.52-90.97l40.97-19.27c3.31-1.56,10.69-5.69,10.06-9.98-11.69-38.72-.78-63.19,20.55-94.16,11.04-16.03,22.34-30.86,37.57-43.44,11.32-9.35,21.92-18.01,35.19-24.93,20.01-10.43,40.4-19.15,62.11-26.06l23.19-4.43,7.73,7.02c9.23-7.51,17.84-14.51,27.92-20.51l20.49-12.19c4.71-2.8,8.45-4.17,13.17-6.39l21.56-10.16,40.24-14.79,29.61-8.6c9.96-2.89,19.41-5.09,29.93-4.38,3.2.22,6.36-2.64,9.24-2.77l27.52-1.26c39.37-1.8,91.73,28.77,117.39,58.68,14.19,16.54,21.12,36.09,20.96,57.91-.05,7.1,1.41,13.44-1.59,20.75-.48,1.16-.47,3.97.08,4.93.7,1.22,4.03,2.02,5.98,1.94l40.41-1.78c14.84-.65,28.28,1.99,42.76,4.57,39.56,7.06,83.8,19.86,107.6,52.6,10.61,14.59,20.53,30.03,26.21,47.27l4.07,12.36c8.37,25.42,14.65,53.09-2.43,75.46-15.04,19.69-37.48,37.07-59.28,49.22l-12.42,6.92c-5.26,2.93-10.01,5.91-15.66,8.28l-23.22,9.72-37,12.89c-10.1,3.52-19.66,5.19-30.21,7.2-41.59,7.92-83.19,11.3-125.73,10.52-3.19-.06-5.7-1.76-8.37-.44-2.42,1.19-2.76,4.23-4.61,6.57l-23.9,30.17c-10.93,13.8-19.27,27.92-26.75,43.79l-20.3,30.48c-6.98,10.47-12.67,20.77-20.28,30.83-9.83,12.99-11.95,29.34-12.01,45.63l-.34,80.88c-.07,16.24,2.28,30.92.71,47.03-1.62,16.67.83,33.5,2.07,50.39,1.33,17.98,1.27,34.76,2.33,52.63l3.22,54.01c.19,3.26,4.09,6.68,1.14,10.56-3.53,4.66-11.71,6.07-15.45,3.29-2.24-1.66-1.37-3.89-1.51-7.02l-7.81-168.94c-.98-21.16-3.17-40.5-5.17-61.38ZM478.91,475.39c54.85,14.51,127.23-17.35,171.74-51.15,6.32-4.8,8.95-6,17.43-3.91,29.9,7.38,60.95,8.75,91.95,6.48l43.39-3.17,18.46-2.65,18.49-2.7,24.08-5.89,27.83-8.19c5.01-1.47,8.87-1.4,13.37-3.94l7.59-4.29,15.43-7.29,12.99-6.33c6.88-3.35,12.28-7.96,18.86-11.17,7.17-3.5,11.96-7.31,18.09-12.08,12.69-9.88,25.54-19.3,33.29-33.74,8.27-15.41,9.8-31.8,6.26-48.3-5.15-23.99-12.9-45.74-26.94-66.14-2.81-4.08-4-7.89-7.83-11.67-4.58-4.51-9.57-10.92-15.37-14.29l-1.82-4.6c-.19-.49-2.32.2-3.32.35-42.32-24.13-101.84-32.69-150.47-28.1l-22.35.47c-2.67.06-5-.92-6.2-2.32-1.46-1.72-1.92-3.97-1.15-6.77,5.77-21,7.08-43.76-2.96-63.71-12.07-24-37.5-43.48-61.11-56.7s-54.54-19.74-81.49-15.94l-28.8,4.07-21.81,5.05c-8.85,2.05-17.17,3.77-25.77,7.26l-20.21,8.19c-13.65,5.53-26.66,10.16-39.24,17.82-7.95,4.84-16.15,8.4-24.01,13.46l-15.54,10.01c-10.25,6.6-19.49,14.07-25.96,25.88-4.2-2.72-3.57-6.96-1.5-11.54l-16.06-2.19c-19.5,1.51-63.66,21-81.78,33.93-28.68,20.46-50.54,44.9-66.92,76.06-22.45,42.67-1.38,71.15-2.33,74.78-.54,2.06-2.56,5.09-5.37,6.67l-18.24,10.22-50.56,22.94c-55.79,28.66-95.1,56.02-137.75,101.85-6.39,6.87-10.64,14.07-16.52,21.16-18.65,22.47-30.82,49.3-27.51,79.37,1.17,10.67,6.52,23.4,14.65,30.51,22.68,19.84,76.22,25.82,105.07,17.76l40.84-11.42,38.54-15.73c26.15-10.68,49.38-26.09,74.54-38.93,3.46-1.77,5.07-3.3,8.16-5.24l36.98-23.24c18.87-11.86,37.18-23.4,57.72-32.09,8.88-3.76,19.95-6.11,28.72-2.6,18.77,7.52,27.18,34.44,62.44,43.76ZM610.23,561.37l10.98-19.63c12.29-12.73,20.48-26.75,27.57-43,9.35-21.41,31.91-39.4,38.18-61.61l-28.61-4.05c-36.27,26.52-76.85,44.69-120.55,54.15,6.59,18.81,18.28,34.1,30.3,49.52l9.89,23.16c5.26,8.64,9.43,17.31,13.71,26.64,3.08-1.25,2.43-4.76,3.48-6.09l15.05-19.1ZM546.04,532.5c-9.84-13.5-15.65-28.37-26.18-40.68-1.81-2.12-6.54-2.09-9.18-.47l16.66,26.23c11.34,13.97,21.79,27.32,32.56,42.57.68-12.35-7.56-19.01-13.85-27.65ZM585.42,595.56l-.84,5.87,3.2.46.84-5.87-3.2-.46Z"/>
      <path d="M657.67,917.59c-3.04,3.39-7.42,3.53-10,2.1-10.01-5.53,5.21-51.37,12.05-70.89l12.02-34.31c-5.46-1.26-9.04-3.38-10.6-6.16-2.76-4.92-3.32-9.84-.62-14.5l7.2-12.44c8.42-10.07,18.77-20.36,31.23-25.44,8.75-3.57,16.75,5.23,19.61,12.82,6.35,16.88-13.03,26.67-13.17,29.36-.09,1.75,2.15,3.28,2.92,4.86,10.58,21.93,18.66,44.01,27.17,67.1l14.7-46.57,6.35-21.21c-18.17-16.67-3.29-46.63,5-45.55,6.01.78,7.77-1.35,11.98-4.66,5.4-4.26,15.19.18,19.11,4.56,5.27,5.89,5.57,15.09.86,21.49l-8.93,12.14,9.64,24.46,24.48,57.7,6.57,15.94c2.01,4.86,3.19,8.1.71,13.01-10.65,21.09-34.61-18.04-61.16-27.64-5.73-2.07-14.5.06-14.13,6.77l1.71,30.7c.43,7.71-14.88,10.29-18.9,4.77l-21.03-28.83c-7.88-9.79-18.88-15.87-31.83-14.84-11.84,7.58-19.38,20.18-19.1,34.48-.43,3.84-1.04,7.63-3.85,10.76ZM767.46,784.4c7.99-4.43,11.13-10.63,14.9-17.01-1.19-2.91-4.03-2.92-6.41-2.87-2.91.06-3.14,2.63-4.39,5.33-2.24,4.87-6.77,9.32-4.1,14.56ZM702.6,769.99c-9.74,6.73-20.37,13.62-24.99,25.64,13.11-3.17,31.92-17.75,24.99-25.64ZM803.66,877.18c-11.26-23.6-20.22-45.64-30.51-70.54l-18.69,47.81c6.39-.24,12.48-.74,18.24,2.34,11.36,4.79,18.8,13.73,30.96,20.39ZM720.94,871.33l-8.62-23.27c-4.91-13.25-15.8-37.74-21.69-35.41-.8.32-1.17,2.29-1.63,3.41l-17.83,42.97c10.74-5.53,21.85-5.45,31.58.15,7.22,2.16,11.02,6.9,18.21,12.15Z"/>
      <g>
        <g>
          <path d="M1413.85,368.45l3.22,23.13c.45,3.26,1.93,5.78.75,8.35s-4.48,4.92-7.87,4.16c-5.37-1.2-8.89-5.63-10.04-10.92l-3.66-16.71c-7.35.42-19.9,4.02-23.06,11.97-4.14,10.42-9.26,21.88-22.51,22.91-2.33,21.3-2.25,42.68-1.1,64.94.21,4.14-2.2,7.63-5.2,8.11-4.19.66-8.13-1.62-8.09-6.57l.55-64.84c-12.91,6.8-25.03,4.91-34.32-3.67-4.23,5.19-8.97,10.79-14.86,12.8-8.59,2.92-15.34-3.63-18.67-11.9-6.71,5.6-13.69,6.43-20.8,7.94s-12.69.02-18.75-4.37c-23.78-17.25,4.4-75.56,23.44-75.43,4.81.03,9.41,2.12,12.33,6.94,1.1,1.81.91,4.09-.18,5.48-3.26,4.15-10.17-2.85-14.93,2.44-18.1,20.11-22.28,48.74-6.56,52.35,10.32,2.37,23-1.63,29.08-10.14l16.94-23.71c3.28-4.6,7.45-8.88,13.45-9.46,4.12-.4,6.07,2.1,7.62,4.3,2.6,3.66-3.44,6.73-3.09,9.1l2.17,14.79c1.55,10.55,9.7,14.77,18.85,12.99,6.03-1.17,9.35-4.13,9.18-10.93-.11-4.56,1.88-10.29-.23-14.78-1.8-3.83-3.1-6.93-1.59-9.84,5.53-10.7,22.95-4.89,33.48,7.58,15.5-12.47,39.21-23.57,44.44-7.02ZM1353.89,392.33c5.04-.64,3.32-8.13.87-7.86-3.16.36-3.28,8.16-.87,7.86ZM1282.53,412.55c10.78-3.65,15.56-13.45,11.34-22.99-6.76,5.94-13.48,13.11-11.34,22.99Z"/>
          <path d="M1482.63,380.78l23.6-23c-15.61-.05-29.45,4.35-43.28,7.82-4.62,20.36,3.97,42.06-2.27,45.99-10.2,6.42-15.78-16.19-14.5-37.79.33-5.56-14.55,1.55-16.35-7.94-1.84-9.7,14.57-7.18,15.39-9.64,5.67-16.99-5.32-29.55,1.73-36.56,2.79-2.77,7.09-3.21,11.05-1.82,3.4,1.2,5.84,5.55,5.7,10.38l-.67,23.39c20.62-3.62,40.81-6.79,61.53-6.39,4.51.09,5.76,2.76,6.23,6.46l7.05,55.87c.58,4.59-2.08,8.71-5.89,9.26-3.58.52-7.89-1.42-8.96-5.62l-8.13-31.99c-6.86,10.56-14.23,18.33-25.71,19.46-4.47.44-7.55-3.4-9.3-6.68s-1.01-7.5,2.79-11.21Z"/>
          <path d="M1406.02,347.23c-3.21,3.25-7.38,1.83-9.56.98-3.35-1.31-5.11-5.35-2.94-9.13,1.9-3.31,7.28-3.14,9.98-1.2,2.11,1.52,5.26,6.57,2.52,9.35Z"/>
        </g>
        <g>
          <path d="M1356.74,161.94c7.99-8.88,6.71-22.88,8.23-33.57.88-6.21,2.08-11.41-1.78-17.15-12.67,10.33-28.18,8.76-38.98-2.73l-18.8,11.09-8.13-1.01c-3.1,14.75-1.99,29.41-.61,44.38.38,4.11,0,6.27-4.49,7.95-1.87.7-4.01,1.65-5.73,1.05-2.17-.75-4.24-2.94-4.31-5.88l-.86-35.83c-.19-7.71-.57-13.8,1.38-21.63l1.33-23.05-28.95,4.56c-1.23.19-3.7.15-4.7.06-1.21-.11-3.37,2.44-2.85,4.12,6.08,5.65,8.08,11.48,6.58,19.36-1.93,10.14-9.18,16.74-19.21,15.41-9.36-1.25-15.86-9.23-14.67-19.86.37-3.33.68-7.2-2.57-9.39l-21.76,22.18c-3.22,3.28-7.11,4.33-11.04,3.22s-6.93-4.42-7.33-8.97l-1.96-22.63c-8.46,10.35-13.7,21.57-17.78,33.62-1.49,4.41-5.48,6.68-10.55,4.24-2.78-1.34-2.2-5.22-3.33-11.39-8.52,10.37-18.49,17.46-31.12,14.57-8.75-2-11.73-10.85-16.23-18.93-8.01,10.77-16.27,17.56-24.43,11.11-2.1-1.66-3.07-5.47-4.26-9.87-10.78,5.65-20.68,14.32-33.36,16.29-10.88,1.69-18.1-10.93-18.19-20.81-.41-43.32,44.22-82.49,56.09-71.55,1.34,1.23,2.23,5.36-.44,6.75-4.8,2.5-8.14,5.42-12.36,8.7-17.57,13.64-29.19,34.19-28.64,56.72.06,2.42,1.16,5.19,2.36,6.11,7.43,5.65,42.28-20.32,56.28-35.79,1.58-1.75,4.02-2.49,5.78-2.51,2.33-.02,3.46,2.82,5.78,4.09l10,5.48c-.67,12.07.83,28.97,6.24,31.75,9.2,4.73,27.15-15.08,33.02-34.82.56-1.89,2.72-3.11,3.85-3.42,4.36-1.2,7.42,4.96,11.54,4.39,3.55-.5,7.23-11.62,13.3-11.82,2.43-.08,7.29,3.55,8.67,5.67,5.24,8.02,3.99,16.88,3.66,27.42,8.44-5.82,15.32-12.42,21.83-19.5,4.73-5.14,9.62-6.86,16.47-7.92l55.57-8.66c4.3-.67,7.54-3.49,11.33-.3,2.69,2.26,4.65,5.9,4.09,10.82l17.44-8.74c9.19-.59,11.63,9.22,14.15,15.61,1.84,4.68,5.15,8.99,8.14,13.07,2.77,3.79,12.18,1.68,15.62-.64,13.26-8.94,3.58-23.49,15.21-25.65,3.41-.63,10.77,2.34,10.5,7.6l-2.04,40.61c-.53,10.57-2.02,21.1-4.69,31.18-4.73,17.9-36,32.65-51.51,18.57-1.71-1.74,1.33-8.04,4.04-8.81,8.85,1.93,21.74,3.41,29.19-4.88ZM1298.61,109.63l17.46-12.72c1.36-.99,1.73-3.58,1.59-4.68-.15-1.24-2.02-2.63-3.32-2.41-2.39.41-16.37,12.42-15.73,19.81ZM1243.33,110.53c.68-4.61,1.4-6.62-.91-8.79-1.8-1.69-3.37-3.4-7.5-2.75.1,4.79-1.87,12.51,1.72,17.08,2.02,2.57,6.21-2.28,6.69-5.54ZM1093.37,101.27c-2.43-2.55-4.59.31-5.47,2.12-1.11,2.29-1.44,4.24-.02,5.97l5.49-8.09Z"/>
          <path d="M1154.03,278.06l-1.65-45.5-5.08-15.54c-1.45-4.45,2.07-8.22,5.19-10.19,6.65-4.2,10.32,2.47,25.84,4.44,13.77,1.75,22.85,14.12,18.86,27.51,3.04,1.9,9.59-.12,9.46-3.61-.31-8.63.81-18.3,9.78-22.4,10.35-4.73,24.64,3.37,25.76,14.8.76,7.69-6.85,10.09-11.25,15.16,11.22-1.12,22.63-6.74,29.39-15.72,1.47-1.95,1.64-7.33,4.77-7.91l8.29-1.54c3.09-9.37,8.86-18.52,19.23-20.06,3.18-.47,5.62,1.13,6.92,3.25,4.58,7.43-7.82,6.7-12.27,15.72-10.95,22.18-5.01,39.03-14.85,38.69-8.93-.31-5.85-10.31-11.45-14.45-6.8,7.19-16.27,9.21-24.05,14.02-8.63,5.33-17.2-1.59-24.34-4.77l-43.81,13.14.19,43.72c.01,2.79-6.19,5.75-7.91,3.47-6.9-9.18-6.6-20.44-7.02-32.24ZM1228.75,224.87c-.57-1.74-4.48-2.38-6.4-.79-1.33,1.11-2.72,3.15-2.37,6.62,6.14-.45,10-2.05,8.77-5.83ZM1168.62,250.05l10.15-3.27c5.24-1.69,7.28-11.94,3.65-16.83-2.42-3.25-8.81-3.25-12.39-1.94l-1.4,22.04Z"/>
        </g>
      </g>
    </g>
  </g>
</svg>